<svg width="320" height="115" viewBox="0 0 320 115" fill="none" xmlns="http://www.w3.org/2000/svg">
<g id="Group 47">
<g id="Group">
<path id="Vector" d="M33.2489 88.4658H25.2489V93.5585H33.1209V95.4483H25.2489V102.495H23.1689V86.48H33.2489V88.4658Z" fill="black"/>
<path id="Vector_2" d="M38.8495 100.541H46.1135V102.495H36.7695V86.48H38.8495V100.541Z" fill="black"/>
<path id="Vector_3" d="M47.1371 94.52C47.0699 93.4881 47.2149 92.4534 47.5632 91.4798C47.9115 90.5063 48.4557 89.6146 49.162 88.86C49.8684 88.1054 50.722 87.5039 51.6699 87.0926C52.6178 86.6814 53.64 86.4692 54.6731 86.4692C55.7062 86.4692 56.7284 86.6814 57.6763 87.0926C58.6242 87.5039 59.4778 88.1054 60.1841 88.86C60.8905 89.6146 61.4347 90.5063 61.783 91.4798C62.1313 92.4534 62.2763 93.4881 62.2091 94.52C62.2763 95.5519 62.1313 96.5866 61.783 97.5602C61.4347 98.5337 60.8905 99.4254 60.1841 100.18C59.4778 100.935 58.6242 101.536 57.6763 101.947C56.7284 102.359 55.7062 102.571 54.6731 102.571C53.64 102.571 52.6178 102.359 51.6699 101.947C50.722 101.536 49.8684 100.935 49.162 100.18C48.4557 99.4254 47.9115 98.5337 47.5632 97.5602C47.2149 96.5866 47.0699 95.5519 47.1371 94.52ZM59.9371 94.52C60.0868 93.7328 60.0611 92.9222 59.8618 92.1461C59.6625 91.3699 59.2945 90.6474 58.7841 90.0301C58.2736 89.4127 57.6334 88.9157 56.9089 88.5746C56.1845 88.2334 55.3937 88.0566 54.5931 88.0566C53.7925 88.0566 53.0017 88.2334 52.2773 88.5746C51.5528 88.9157 50.9126 89.4127 50.4021 90.0301C49.8917 90.6474 49.5237 91.3699 49.3244 92.1461C49.1251 92.9222 49.0994 93.7328 49.2491 94.52C49.0994 95.3072 49.1251 96.1178 49.3244 96.8939C49.5237 97.6701 49.8917 98.3926 50.4021 99.0099C50.9126 99.6273 51.5528 100.124 52.2773 100.465C53.0017 100.807 53.7925 100.983 54.5931 100.983C55.3937 100.983 56.1845 100.807 56.9089 100.465C57.6334 100.124 58.2736 99.6273 58.7841 99.0099C59.2945 98.3926 59.6625 97.6701 59.8618 96.8939C60.0611 96.1178 60.0868 95.3072 59.9371 94.52Z" fill="black"/>
<path id="Vector_4" d="M84.6731 86.48H86.9131L83.0091 102.495H78.6571L75.4571 86.7682L72.2571 102.495H68.0331L64.1611 86.48H66.3691L70.4011 102.495L73.6011 86.7682H77.9211L81.1211 102.495L84.6731 86.48Z" fill="black"/>
<path id="Vector_5" d="M92.0026 100.541H100.387V102.495H89.8906V86.48H100.195V88.3377H92.0026V93.2062H100.067V95.0639H92.0026V100.541Z" fill="black"/>
<path id="Vector_6" d="M116.321 102.495H113.857L110.049 96.0888H106.273V102.495H104.161V86.48H109.985C113.505 86.48 115.681 88.3057 115.681 91.1563C115.706 92.1629 115.381 93.147 114.763 93.9411C114.145 94.7353 113.27 95.2905 112.289 95.5123L116.321 102.495ZM106.273 88.5299V94.1671H110.049C112.193 94.1671 113.505 93.1421 113.505 91.3485C113.505 89.5548 112.193 88.5299 110.049 88.5299H106.273Z" fill="black"/>
<path id="Vector_7" d="M146.882 86.48C150.626 86.48 152.898 88.2416 152.898 91.4125C152.898 94.5835 150.626 96.3771 146.882 96.3771H143.138V102.495H141.058V86.48H146.882ZM146.882 94.5194C149.314 94.5194 150.626 93.4945 150.626 91.3164C150.626 89.1384 149.314 88.1135 146.882 88.1135H143.138V94.2952L146.882 94.5194Z" fill="black"/>
<path id="Vector_8" d="M155.235 94.5197C155.139 93.4729 155.261 92.4174 155.595 91.4208C155.929 90.4241 156.467 89.5081 157.175 88.7313C157.883 87.9545 158.744 87.334 159.705 86.9095C160.666 86.4849 161.705 86.2656 162.755 86.2656C163.805 86.2656 164.844 86.4849 165.805 86.9095C166.766 87.334 167.628 87.9545 168.335 88.7313C169.043 89.5081 169.581 90.4241 169.915 91.4208C170.249 92.4174 170.372 93.4729 170.275 94.5197C170.372 95.5665 170.249 96.622 169.915 97.6187C169.581 98.6154 169.043 99.5314 168.335 100.308C167.628 101.085 166.766 101.705 165.805 102.13C164.844 102.555 163.805 102.774 162.755 102.774C161.705 102.774 160.666 102.555 159.705 102.13C158.744 101.705 157.883 101.085 157.175 100.308C156.467 99.5314 155.929 98.6154 155.595 97.6187C155.261 96.622 155.139 95.5665 155.235 94.5197ZM168.035 94.5197C168.185 93.7325 168.159 92.9219 167.96 92.1458C167.761 91.3697 167.393 90.6471 166.882 90.0298C166.372 89.4124 165.731 88.9154 165.007 88.5743C164.282 88.2332 163.492 88.0563 162.691 88.0563C161.891 88.0563 161.1 88.2332 160.375 88.5743C159.651 88.9154 159.011 89.4124 158.5 90.0298C157.99 90.6471 157.622 91.3697 157.422 92.1458C157.223 92.9219 157.197 93.7325 157.347 94.5197C157.197 95.3069 157.223 96.1175 157.422 96.8936C157.622 97.6698 157.99 98.3923 158.5 99.0097C159.011 99.627 159.651 100.124 160.375 100.465C161.1 100.806 161.891 100.983 162.691 100.983C163.492 100.983 164.282 100.806 165.007 100.465C165.731 100.124 166.372 99.627 166.882 99.0097C167.393 98.3923 167.761 97.6698 167.96 96.8936C168.159 96.1175 168.185 95.3069 168.035 94.5197Z" fill="black"/>
<path id="Vector_9" d="M192.77 86.48H194.978L191.106 102.495H186.722L183.522 86.7682L180.482 102.495H176.002L172.226 86.48H174.466L178.338 102.495L181.538 86.7682H185.858L188.802 102.495L192.77 86.48Z" fill="black"/>
<path id="Vector_10" d="M200.096 100.541H208.448V102.495H197.984V86.48H208.288V88.3377H200.096V93.2062H208V95.0639H200.096V100.541Z" fill="black"/>
<path id="Vector_11" d="M224.385 102.495H221.953L218.145 96.0888H214.401V102.495H212.321V86.48H218.145C221.633 86.48 223.809 88.3057 223.809 91.1563C223.834 92.1629 223.51 93.147 222.891 93.9411C222.273 94.7353 221.399 95.2905 220.417 95.5123L224.385 102.495ZM214.401 88.4658V94.103H218.177C220.321 94.103 221.633 93.0781 221.633 91.2844C221.633 89.4908 220.321 88.4658 218.177 88.4658H214.401Z" fill="black"/>
<path id="Vector_12" d="M254.496 86.4794C255.572 86.3716 256.658 86.5065 257.675 86.8744C258.692 87.2422 259.613 87.8335 260.371 88.6048C261.13 89.3761 261.706 90.3077 262.057 91.3312C262.408 92.3547 262.525 93.4439 262.4 94.5188C262.509 95.5874 262.38 96.6668 262.022 97.6795C261.664 98.6922 261.086 99.6129 260.331 100.375C259.575 101.138 258.66 101.724 257.651 102.09C256.642 102.456 255.565 102.594 254.496 102.494H249.12V86.4794H254.496ZM254.496 100.412C255.282 100.468 256.071 100.347 256.804 100.058C257.538 99.7687 258.197 99.3189 258.734 98.7414C259.271 98.1639 259.672 97.4734 259.908 96.7206C260.144 95.9677 260.208 95.1716 260.096 94.3907C260.207 93.6083 260.143 92.8111 259.907 92.0569C259.672 91.3027 259.271 90.6105 258.735 90.0307C258.198 89.4509 257.54 88.998 256.806 88.7051C256.073 88.4121 255.284 88.2864 254.496 88.3371H251.296V100.412H254.496Z" fill="black"/>
<path id="Vector_13" d="M277.218 102.495L275.49 97.6903H267.746L266.05 102.495H263.778L269.474 86.48H273.762L279.458 102.495H277.218ZM268.418 95.7685H274.818L271.618 86.6722L268.418 95.7685Z" fill="black"/>
<path id="Vector_14" d="M280.738 94.5197C280.641 93.4729 280.764 92.4174 281.098 91.4208C281.432 90.4241 281.97 89.5081 282.678 88.7313C283.386 87.9545 284.247 87.334 285.208 86.9095C286.169 86.4849 287.208 86.2656 288.258 86.2656C289.308 86.2656 290.347 86.4849 291.308 86.9095C292.269 87.334 293.131 87.9545 293.838 88.7313C294.546 89.5081 295.084 90.4241 295.418 91.4208C295.752 92.4174 295.875 93.4729 295.778 94.5197C295.875 95.5665 295.752 96.622 295.418 97.6187C295.084 98.6154 294.546 99.5314 293.838 100.308C293.131 101.085 292.269 101.705 291.308 102.13C290.347 102.555 289.308 102.774 288.258 102.774C287.208 102.774 286.169 102.555 285.208 102.13C284.247 101.705 283.386 101.085 282.678 100.308C281.97 99.5314 281.432 98.6154 281.098 97.6187C280.764 96.622 280.641 95.5665 280.738 94.5197ZM293.538 94.5197C293.688 93.7325 293.662 92.9219 293.463 92.1458C293.263 91.3697 292.895 90.6471 292.385 90.0298C291.875 89.4124 291.234 88.9154 290.51 88.5743C289.785 88.2332 288.995 88.0563 288.194 88.0563C287.393 88.0563 286.603 88.2332 285.878 88.5743C285.154 88.9154 284.514 89.4124 284.003 90.0298C283.493 90.6471 283.125 91.3697 282.925 92.1458C282.726 92.9219 282.7 93.7325 282.85 94.5197C282.7 95.3069 282.726 96.1175 282.925 96.8936C283.125 97.6698 283.493 98.3923 284.003 99.0097C284.514 99.627 285.154 100.124 285.878 100.465C286.603 100.806 287.393 100.983 288.194 100.983C288.995 100.983 289.785 100.806 290.51 100.465C291.234 100.124 291.875 99.627 292.385 99.0097C292.895 98.3923 293.263 97.6698 293.463 96.8936C293.662 96.1175 293.688 95.3069 293.538 94.5197Z" fill="black"/>
</g>
<g id="Group_2">
<path id="Vector_15" d="M56.6702 19.8594H31.9982V34.3047H56.3822V41.6395H31.9982V63.4195H23.1982V12.3965H56.6702V19.8594Z" fill="black"/>
<path id="Vector_16" d="M86.9118 12.3965C99.7118 12.3965 107.008 18.386 107.008 28.7315C107.008 39.0771 99.6158 45.0666 86.9118 45.0666H76.0958V63.4836H67.4238V12.3965H86.9118ZM87.1038 37.6678C94.1758 37.6678 97.9838 34.657 97.9838 28.7315C97.9838 22.8061 94.1758 19.8594 87.1038 19.8594H76.0958V37.6678H87.1038Z" fill="black"/>
</g>
<path id="Vector_17" d="M88.352 76.2943H38.112C28.0041 76.2943 18.3101 72.2753 11.1627 65.1213C4.01536 57.9673 0 48.2644 0 38.1472C0 28.0299 4.01536 18.327 11.1627 11.173C18.3101 4.01907 28.0041 0 38.112 0L88.352 0C98.4599 0 108.154 4.01907 115.301 11.173C122.449 18.327 126.464 28.0299 126.464 38.1472C126.464 48.2644 122.449 57.9673 115.301 65.1213C108.154 72.2753 98.4599 76.2943 88.352 76.2943ZM38.112 2.14598C28.5727 2.14598 19.4241 5.93895 12.6788 12.6905C5.93347 19.442 2.144 28.5991 2.144 38.1472C2.144 47.6953 5.93347 56.8523 12.6788 63.6039C19.4241 70.3554 28.5727 74.1484 38.112 74.1484H88.352C97.8913 74.1484 107.04 70.3554 113.785 63.6039C120.531 56.8523 124.32 47.6953 124.32 38.1472C124.32 28.5991 120.531 19.442 113.785 12.6905C107.04 5.93895 97.8913 2.14598 88.352 2.14598H38.112Z" fill="black"/>
<path id="Vector_18" d="M320 114.955H0V74.1489H320V114.955ZM2.144 112.809H317.728V76.2949H2.144V112.809Z" fill="black"/>
<g id="Group_3">
<path id="Vector_19" d="M165.632 12.394C180.96 12.394 191.232 20.978 191.232 38.0177C191.232 55.0574 180.96 63.6413 165.632 63.6413H147.488V12.394H165.632ZM165.824 56.0183C176.256 56.0183 182.304 49.6124 182.304 37.9216C182.304 26.2308 176.256 19.8569 165.824 19.8569H156.224V56.0183H165.824Z" fill="black"/>
<path id="Vector_20" d="M237.184 63.4812L232.288 48.8437H208.448L203.52 63.4812H194.4L212.064 12.394H228.672L246.336 63.6413L237.184 63.4812ZM210.912 41.4448H229.792L220.384 13.451L210.912 41.4448Z" fill="black"/>
<path id="Vector_21" d="M248.705 37.9228C248.705 22.0682 258.913 11.5625 273.633 11.5625C288.353 11.5625 298.561 22.0682 298.561 37.9228C298.561 53.7774 288.321 64.2831 273.633 64.2831C258.945 64.2831 248.705 53.8095 248.705 37.9228ZM289.537 37.9228C289.537 26.4242 283.137 18.7051 273.537 18.7051C263.937 18.7051 257.537 26.4883 257.537 37.9228C257.537 49.3574 263.937 57.1405 273.537 57.1405C283.137 57.1405 289.537 49.4534 289.537 37.9228Z" fill="black"/>
</g>
<path id="Vector_22" d="M320 76.2943H124.352V0H320V76.2943ZM126.624 74.1484H317.728V2.14598H126.496L126.624 74.1484Z" fill="black"/>
</g>
</svg>
