<svg width="108" height="41" viewBox="0 0 108 41" fill="none" xmlns="http://www.w3.org/2000/svg">
<g id="Group 53">
<rect id="Rectangle 183" x="1" y="1" width="106" height="39" rx="19.5" fill="white" stroke="black" stroke-width="2"/>
<path id="open" d="M38.7746 17.33C39.262 17.33 39.7153 17.415 40.1346 17.585C40.554 17.755 40.9166 17.993 41.2226 18.299C41.5286 18.605 41.7666 18.9733 41.9366 19.404C42.118 19.8233 42.2086 20.288 42.2086 20.798C42.2086 21.5007 42.0896 22.1807 41.8516 22.838C41.625 23.484 41.285 24.062 40.8316 24.572C40.3896 25.0707 39.84 25.473 39.1826 25.779C38.5366 26.085 37.8 26.238 36.9726 26.238C36.4966 26.238 36.049 26.1587 35.6296 26C35.2103 25.83 34.842 25.5977 34.5246 25.303C34.2186 25.0083 33.975 24.6513 33.7936 24.232C33.6123 23.8013 33.5216 23.3253 33.5216 22.804C33.5216 21.988 33.6576 21.2457 33.9296 20.577C34.213 19.897 34.5926 19.319 35.0686 18.843C35.556 18.367 36.117 17.9987 36.7516 17.738C37.3863 17.466 38.0606 17.33 38.7746 17.33ZM37.2616 24.98C37.783 24.98 38.2646 24.8667 38.7066 24.64C39.1486 24.402 39.5283 24.096 39.8456 23.722C40.163 23.3367 40.4066 22.9003 40.5766 22.413C40.758 21.9257 40.8486 21.4213 40.8486 20.9C40.8486 20.2313 40.639 19.6817 40.2196 19.251C39.8116 18.809 39.2336 18.588 38.4856 18.588C37.9983 18.588 37.5393 18.6957 37.1086 18.911C36.678 19.1263 36.2983 19.421 35.9696 19.795C35.6523 20.169 35.3973 20.6053 35.2046 21.104C35.012 21.5913 34.9156 22.1127 34.9156 22.668C34.9156 23.348 35.1196 23.9033 35.5276 24.334C35.9356 24.7647 36.5136 24.98 37.2616 24.98ZM44.8998 29.4H43.5908L45.8178 18.843C45.8405 18.7183 45.8292 18.6333 45.7838 18.588C45.7385 18.5313 45.6705 18.503 45.5798 18.503C45.5232 18.503 45.4722 18.52 45.4268 18.554L44.4918 19.2L43.8118 18.197L44.6108 17.653C44.9282 17.4377 45.2738 17.33 45.6478 17.33C46.1012 17.33 46.4582 17.4547 46.7188 17.704C46.9908 17.9533 47.1268 18.316 47.1268 18.792V18.894H47.3308C47.6708 18.384 48.0788 17.9987 48.5548 17.738C49.0422 17.466 49.6202 17.33 50.2888 17.33C50.7535 17.33 51.1785 17.415 51.5638 17.585C51.9605 17.7437 52.2948 17.9703 52.5668 18.265C52.8502 18.5483 53.0712 18.894 53.2298 19.302C53.3885 19.6987 53.4678 20.1293 53.4678 20.594C53.4678 21.342 53.3658 22.056 53.1618 22.736C52.9692 23.416 52.6745 24.0167 52.2778 24.538C51.8812 25.0593 51.3882 25.473 50.7988 25.779C50.2095 26.085 49.5182 26.238 48.7248 26.238C48.0902 26.238 47.5405 26.0963 47.0758 25.813C46.6225 25.5183 46.2995 25.15 46.1068 24.708H45.9028L44.8998 29.4ZM48.5548 24.98C49.1102 24.98 49.6032 24.8667 50.0338 24.64C50.4758 24.4133 50.8442 24.113 51.1388 23.739C51.4448 23.3537 51.6715 22.9117 51.8188 22.413C51.9775 21.9143 52.0568 21.3987 52.0568 20.866C52.0568 20.118 51.8585 19.5513 51.4618 19.166C51.0765 18.7807 50.5608 18.588 49.9148 18.588C49.3935 18.588 48.9175 18.707 48.4868 18.945C48.0675 19.183 47.7048 19.4947 47.3988 19.88C47.0928 20.2653 46.8548 20.7017 46.6848 21.189C46.5148 21.6763 46.4298 22.175 46.4298 22.685C46.4298 23.4103 46.6168 23.977 46.9908 24.385C47.3648 24.7817 47.8862 24.98 48.5548 24.98ZM55.904 22.192C55.8813 22.2827 55.8643 22.3847 55.853 22.498C55.8417 22.6113 55.836 22.7303 55.836 22.855C55.836 23.4783 56.0173 23.994 56.38 24.402C56.7427 24.7987 57.3207 24.997 58.114 24.997C58.5107 24.997 58.862 24.9517 59.168 24.861C59.4853 24.7703 59.7573 24.6457 59.984 24.487C60.2107 24.317 60.4033 24.13 60.562 23.926C60.732 23.7107 60.8737 23.484 60.987 23.246L62.075 23.858C61.9163 24.1867 61.718 24.4983 61.48 24.793C61.242 25.0763 60.9587 25.3257 60.63 25.541C60.3013 25.7563 59.9217 25.9263 59.491 26.051C59.0603 26.1757 58.5673 26.238 58.012 26.238C57.502 26.238 57.0317 26.1587 56.601 26C56.1817 25.8527 55.819 25.6373 55.513 25.354C55.207 25.0593 54.969 24.7023 54.799 24.283C54.629 23.8637 54.544 23.3877 54.544 22.855C54.544 22.141 54.6573 21.4553 54.884 20.798C55.1107 20.1293 55.4393 19.54 55.87 19.03C56.3007 18.52 56.8333 18.112 57.468 17.806C58.1027 17.4887 58.8223 17.33 59.627 17.33C60.1937 17.33 60.6867 17.4207 61.106 17.602C61.5253 17.772 61.871 18.01 62.143 18.316C62.415 18.6107 62.619 18.9507 62.755 19.336C62.891 19.71 62.959 20.101 62.959 20.509C62.959 20.815 62.925 21.1097 62.857 21.393L62.67 22.192H55.904ZM59.457 18.588C59.0603 18.588 58.6863 18.6503 58.335 18.775C57.995 18.8883 57.6833 19.0527 57.4 19.268C57.1167 19.4833 56.873 19.7383 56.669 20.033C56.465 20.3163 56.3063 20.628 56.193 20.968H61.599C61.633 20.7867 61.65 20.6167 61.65 20.458C61.65 19.846 61.4403 19.3813 61.021 19.064C60.6017 18.7467 60.0803 18.588 59.457 18.588ZM71.4302 20.934C71.4642 20.7753 71.4868 20.645 71.4982 20.543C71.5095 20.4297 71.5152 20.3163 71.5152 20.203C71.5152 19.659 71.3508 19.2567 71.0222 18.996C70.7048 18.724 70.2572 18.588 69.6792 18.588C68.9085 18.588 68.2795 18.8657 67.7922 19.421C67.3048 19.965 66.9705 20.662 66.7892 21.512L65.8372 26H64.5112L66.3132 17.568H67.6392L67.3842 18.792H67.5882C67.8715 18.282 68.2398 17.9137 68.6932 17.687C69.1578 17.449 69.6452 17.33 70.1552 17.33C70.5178 17.33 70.8635 17.3923 71.1922 17.517C71.5208 17.6303 71.8042 17.8003 72.0422 18.027C72.2915 18.2537 72.4842 18.5313 72.6202 18.86C72.7675 19.1887 72.8412 19.5683 72.8412 19.999C72.8412 20.2823 72.8072 20.5827 72.7392 20.9L71.9232 24.674C71.9005 24.7647 71.9118 24.8327 71.9572 24.878C72.0025 24.9233 72.0592 24.946 72.1272 24.946C72.1952 24.946 72.2575 24.9233 72.3142 24.878L73.0282 24.351L73.7422 25.354L73.0792 25.847C72.7392 26.1077 72.3595 26.238 71.9402 26.238C71.7702 26.238 71.6058 26.2153 71.4472 26.17C71.2885 26.136 71.1468 26.0737 71.0222 25.983C70.8975 25.881 70.7955 25.7507 70.7162 25.592C70.6368 25.4333 70.5972 25.235 70.5972 24.997C70.5972 24.8497 70.6198 24.6683 70.6652 24.453L71.4302 20.934Z" fill="black"/>
</g>
</svg>
